<svg xmlns="http://www.w3.org/2000/svg" width="220" height="120" viewBox="0 0 220 120">
  <rect x="0" y="94" width="220" height="26" fill="#0f172a"/>

  <!-- Back mount platform -->
  <rect x="12" y="78" width="64" height="13" rx="5" fill="#111827" stroke="#020617" stroke-width="4"/>
  <rect x="34" y="52" width="12" height="26" rx="4" fill="#334155" stroke="#1e293b" stroke-width="3"/>
  <rect x="48" y="56" width="8" height="22" rx="3" fill="#475569"/>

  <!-- Long overhanging arm -->
  <path d="M44 56 L182 51 L184 58 L46 63 Z" fill="#374151" stroke="#111827" stroke-width="3"/>
  <rect x="160" y="49" width="22" height="14" rx="5" fill="#4b5563" stroke="#1f2937" stroke-width="3"/>

  <!-- Pot hanging at the far end -->
  <path d="M183 48 C192 44,205 44,212 49 L212 63 C206 69,191 69,183 63 Z" fill="#7c2d12" stroke="#431407" stroke-width="3"/>
  <ellipse cx="197.5" cy="62.5" rx="15" ry="6" fill="#92400e"/>
  <ellipse cx="197.5" cy="49.5" rx="13" ry="4.8" fill="#ef4444" opacity="0.9"/>
  <path d="M188 49 C191 43,196 40,198 34 C201 40,206 43,208 49 Z" fill="#f59e0b"/>

  <!-- Pouring stream at tip -->
  <path d="M212 56 C216 62,216 70,213 78 C209 71,209 63,212 56 Z" fill="#f97316" opacity="0.88"/>
  <path d="M210 60 C213 65,213 71,211 75 C208 70,208 64,210 60 Z" fill="#fde68a" opacity="0.86"/>
</svg>
