<svg xmlns="http://www.w3.org/2000/svg" viewBox="0 0 96 64" role="img" aria-label="Mana Cyphening Relay">
  <defs>
    <linearGradient id="mcr-base" x1="0" x2="1" y1="0" y2="1">
      <stop offset="0" stop-color="#1e293b"/>
      <stop offset="1" stop-color="#0f172a"/>
    </linearGradient>
    <linearGradient id="mcr-core" x1="0" x2="0" y1="0" y2="1">
      <stop offset="0" stop-color="#a5f3fc"/>
      <stop offset="1" stop-color="#22d3ee"/>
    </linearGradient>
    <linearGradient id="mcr-wave" x1="0" x2="1" y1="0" y2="0">
      <stop offset="0" stop-color="#a78bfa"/>
      <stop offset="1" stop-color="#2dd4bf"/>
    </linearGradient>
  </defs>

  <rect x="6" y="48" width="44" height="10" rx="4" fill="url(#mcr-base)" stroke="#020617" stroke-width="2"/>
  <rect x="18" y="42" width="18" height="6" rx="2" fill="#334155" stroke="#020617" stroke-width="2"/>
  <path d="M27 42 L22 20 L32 20 Z" fill="#475569" stroke="#020617" stroke-width="2"/>

  <circle cx="27" cy="16" r="7" fill="url(#mcr-core)" stroke="#0e7490" stroke-width="2"/>
  <circle cx="27" cy="16" r="3" fill="#ecfeff"/>

  <path d="M36 16 C44 10, 52 22, 60 16 C68 10, 76 22, 90 16" fill="none" stroke="url(#mcr-wave)" stroke-width="3" stroke-linecap="round"/>
  <path d="M36 20 C45 14, 53 26, 61 20 C69 14, 78 26, 90 20" fill="none" stroke="#e9d5ff" stroke-width="1.6" stroke-linecap="round" opacity="0.9"/>
</svg>
