<svg xmlns="http://www.w3.org/2000/svg" viewBox="0 0 96 64" role="img" aria-label="Mana Shield Relay">
  <defs>
    <linearGradient id="msr-base" x1="0" x2="1" y1="0" y2="1">
      <stop offset="0" stop-color="#1f2937"/>
      <stop offset="1" stop-color="#111827"/>
    </linearGradient>
    <linearGradient id="msr-shield" x1="0" x2="0" y1="0" y2="1">
      <stop offset="0" stop-color="#bfdbfe"/>
      <stop offset="1" stop-color="#3b82f6"/>
    </linearGradient>
  </defs>

  <rect x="20" y="48" width="34" height="10" rx="4" fill="url(#msr-base)" stroke="#020617" stroke-width="2"/>
  <rect x="30" y="38" width="14" height="10" rx="3" fill="#334155" stroke="#020617" stroke-width="2"/>
  <path d="M37 38 L37 24" stroke="#64748b" stroke-width="4" stroke-linecap="round"/>

  <path d="M37 12 C45 12 50 16 50 24 C50 33 43 39 37 42 C31 39 24 33 24 24 C24 16 29 12 37 12 Z" fill="url(#msr-shield)" stroke="#1e40af" stroke-width="2"/>
  <path d="M37 16 C42 16 46 19 46 24 C46 30 41 35 37 37 C33 35 28 30 28 24 C28 19 32 16 37 16 Z" fill="none" stroke="#dbeafe" stroke-width="1.8"/>

  <circle cx="37" cy="24" r="2" fill="#eff6ff"/>
  <path d="M52 24 C60 18, 70 18, 78 24" fill="none" stroke="#93c5fd" stroke-width="2" opacity="0.75"/>
  <path d="M52 28 C60 22, 70 22, 78 28" fill="none" stroke="#bfdbfe" stroke-width="1.5" opacity="0.6"/>
</svg>
