<svg xmlns="http://www.w3.org/2000/svg" viewBox="0 0 64 64" width="64" height="64">
  <!-- Soldier body -->
  <rect x="26" y="32" width="12" height="18" fill="#4A4A4A" stroke="#2C2C2C" stroke-width="1.5" rx="2"/>
  <!-- Head with gas mask -->
  <circle cx="32" cy="24" r="6" fill="#F5DEB3" stroke="#D2B48C" stroke-width="1"/>
  <ellipse cx="32" cy="24" rx="8" ry="6" fill="none" stroke="#1C1C1C" stroke-width="2"/>
  <circle cx="29" cy="23" r="2.5" fill="#2C2C2C" opacity="0.7"/>
  <circle cx="35" cy="23" r="2.5" fill="#2C2C2C" opacity="0.7"/>
  <!-- Gas mask filter -->
  <rect x="28" y="26" width="8" height="4" fill="#3A3A3A" stroke="#1C1C1C" stroke-width="1" rx="2"/>
  <!-- Fuel tank backpack -->
  <rect x="24" y="30" width="16" height="12" fill="#8B4513" stroke="#654321" stroke-width="1.5" rx="3"/>
  <circle cx="28" cy="36" r="2" fill="#FFD700" stroke="#DAA520" stroke-width="1"/>
  <circle cx="36" cy="36" r="2" fill="#FFD700" stroke="#DAA520" stroke-width="1"/>
  <!-- Hose -->
  <path d="M36 36 Q40 32 42 30" stroke="#1C1C1C" stroke-width="2" fill="none"/>
  <!-- Flamethrower weapon -->
  <rect x="38" y="28" width="16" height="4" fill="#696969" stroke="#404040" stroke-width="1.5" rx="1"/>
  <rect x="50" y="26" width="4" height="8" fill="#4A4A4A" stroke="#2C2C2C" stroke-width="1"/>
  <!-- Pilot light -->
  <circle cx="54" cy="30" r="1.5" fill="#FF4500"/>
  <!-- Flame effect -->
  <path d="M54 30 Q58 28 60 26 Q62 24 62 20" stroke="#FF4500" stroke-width="3" fill="none" opacity="0.8"/>
  <path d="M54 30 Q57 27 59 24 Q60 22 60 18" stroke="#FFA500" stroke-width="2" fill="none" opacity="0.7"/>
  <path d="M54 30 Q56 28 57 26 Q58 24 58 22" stroke="#FFD700" stroke-width="1.5" fill="none" opacity="0.6"/>
  <!-- Legs -->
  <rect x="28" y="50" width="5" height="10" fill="#3A3A3A" stroke="#1C1C1C" stroke-width="1" rx="1"/>
  <rect x="31" y="50" width="5" height="10" fill="#3A3A3A" stroke="#1C1C1C" stroke-width="1" rx="1"/>
  <!-- Arms -->
  <rect x="20" y="34" width="6" height="3" fill="#F5DEB3" stroke="#D2B48C" stroke-width="1" rx="1"/>
  <rect x="38" y="34" width="6" height="3" fill="#F5DEB3" stroke="#D2B48C" stroke-width="1" rx="1"/>
</svg>
