<svg xmlns="http://www.w3.org/2000/svg" width="64" height="64" viewBox="0 0 64 64">
  <!-- Head -->
  <circle cx="30" cy="18" r="6" fill="#F5DEB3" />
  <!-- Gas mask -->
  <ellipse cx="30" cy="20" rx="5" ry="4" fill="#2F2F2F" />
  <!-- Gas mask filters -->
  <circle cx="25" cy="20" r="2" fill="#696969" />
  <circle cx="35" cy="20" r="2" fill="#696969" />
  <!-- Goggles -->
  <ellipse cx="30" cy="17" rx="4" ry="2" fill="#FFD700" opacity="0.6" />
  <!-- Protective suit -->
  <rect x="24" y="28" width="12" height="18" fill="#8B4513" rx="2" />
  <!-- Suit details -->
  <rect x="27" y="30" width="6" height="2" fill="#A0522D" />
  <rect x="27" y="34" width="6" height="2" fill="#A0522D" />
  <!-- Arms -->
  <ellipse cx="18" cy="34" rx="4" ry="8" fill="#8B4513" />
  <ellipse cx="42" cy="34" rx="4" ry="8" fill="#8B4513" transform="rotate(10 42 34)" />
  <!-- Flamethrower tank -->
  <rect x="38" y="26" width="6" height="16" fill="#A9A9A9" rx="3" />
  <!-- Tank straps -->
  <rect x="36" y="30" width="10" height="1" fill="#8B4513" />
  <rect x="36" y="36" width="10" height="1" fill="#8B4513" />
  <!-- Flamethrower nozzle -->
  <rect x="46" y="32" width="8" height="3" fill="#2F2F2F" />
  <rect x="52" y="33" width="4" height="1" fill="#FF4500" />
  <!-- Flames -->
  <path d="M54 33 Q58 30 56 36 Q60 32 58 38" fill="#FF6500" opacity="0.7" />
  <path d="M56 34 Q60 31 58 37" fill="#FF4500" opacity="0.8" />
  <!-- Fuel gauge -->
  <rect x="40" y="28" width="2" height="4" fill="#FF0000" />
  <!-- Protective gloves -->
  <circle cx="16" cy="40" r="2" fill="#2F2F2F" />
  <circle cx="44" cy="40" r="2" fill="#2F2F2F" />
  <!-- Boots -->
  <rect x="26" y="46" width="4" height="12" fill="#2F2F2F" />
  <rect x="30" y="46" width="4" height="12" fill="#2F2F2F" />
</svg>