<svg xmlns="http://www.w3.org/2000/svg" width="64" height="64" viewBox="0 0 64 64">
  <!-- Head -->
  <circle cx="32" cy="18" r="6" fill="#F5DEB3" />
  <!-- Wizard hat -->
  <polygon points="32,6 28,18 36,18" fill="#191970" />
  <!-- Hat brim -->
  <ellipse cx="32" cy="18" rx="8" ry="2" fill="#191970" />
  <!-- Stars on hat -->
  <polygon points="32,12 31,14 29,14 31,15 30,17 32,16 34,17 33,15 35,14 33,14" fill="#FFD700" />
  <!-- Beard -->
  <path d="M28 20 Q32 25 36 20 Q34 24 32 24 Q30 24 28 20" fill="#696969" />
  <!-- Robe -->
  <path d="M24 28 Q32 30 40 28 Q38 50 32 52 Q26 50 24 28" fill="#6A0DAD" />
  <!-- Robe trim -->
  <path d="M26 30 Q32 32 38 30" stroke="#FFD700" stroke-width="2" fill="none" />
  <!-- Staff -->
  <rect x="46" y="15" width="2" height="35" fill="#8B4513" />
  <!-- Crystal orb -->
  <circle cx="47" cy="12" r="4" fill="#87CEEB" opacity="0.8" />
  <circle cx="47" cy="12" r="2" fill="#00FFFF" />
  <!-- Magic sparkles -->
  <circle cx="52" cy="18" r="1" fill="#FFD700" />
  <circle cx="54" cy="22" r="1" fill="#FF69B4" />
  <circle cx="50" cy="25" r="1" fill="#00FFFF" />
  <!-- Arms -->
  <ellipse cx="20" cy="36" rx="3" ry="6" fill="#F5DEB3" />
  <ellipse cx="44" cy="36" rx="3" ry="6" fill="#F5DEB3" />
</svg>