<svg xmlns="http://www.w3.org/2000/svg" width="64" height="64" viewBox="0 0 64 64">
  <!-- Dino body -->
  <ellipse cx="32" cy="40" rx="20" ry="12" fill="#32CD32" />
  <!-- Dino head -->
  <ellipse cx="50" cy="28" rx="8" ry="10" fill="#228B22" />
  <!-- Spines -->
  <polygon points="20,30 22,22 24,30 26,24 28,30 30,26 32,30" fill="#006400" />
  <polygon points="32,30 34,24 36,30 38,26 40,30 42,24 44,30" fill="#006400" />
  <!-- Eyes -->
  <circle cx="52" cy="25" r="2" fill="#FF4500" />
  <!-- Legs -->
  <rect x="20" y="48" width="4" height="8" fill="#228B22" />
  <rect x="28" y="48" width="4" height="8" fill="#228B22" />
  <rect x="36" y="48" width="4" height="8" fill="#228B22" />
  <rect x="44" y="48" width="4" height="8" fill="#228B22" />
  <!-- Rider -->
  <circle cx="28" cy="28" r="5" fill="#D2B48C" />
  <rect x="25" y="35" width="6" height="8" fill="#8B4513" />
</svg>