<svg xmlns="http://www.w3.org/2000/svg" width="64" height="64" viewBox="0 0 64 64">
  <!-- Void aura/energy field -->
  <circle cx="32" cy="36" r="28" fill="#9400D3" opacity="0.15" />
  <circle cx="32" cy="36" r="22" fill="#4B0082" opacity="0.2" />
  
  <!-- Ethereal cloak -->
  <path d="M20 28 Q18 40 16 52 L22 52 Q24 42 26 32 Z" fill="#1a001a" opacity="0.8" />
  <path d="M44 28 Q46 40 48 52 L42 52 Q40 42 38 32 Z" fill="#1a001a" opacity="0.8" />
  
  <!-- Main body core - dark crystalline form -->
  <ellipse cx="32" cy="32" rx="10" ry="16" fill="#0a0014" />
  <ellipse cx="32" cy="32" rx="8" ry="14" fill="#1a0033" />
  
  <!-- Energy core pulsing in center -->
  <circle cx="32" cy="32" r="5" fill="#9400D3" opacity="0.8" />
  <circle cx="32" cy="32" r="3" fill="#FF00FF" opacity="0.9" />
  <circle cx="32" cy="32" r="1.5" fill="#FFFFFF" />
  
  <!-- Void tendrils/arms -->
  <path d="M24 30 Q18 28 14 32 Q16 34 20 34 Z" fill="#4B0082" opacity="0.7" />
  <path d="M40 30 Q46 28 50 32 Q48 34 44 34 Z" fill="#4B0082" opacity="0.7" />
  
  <!-- Energy wisps around arms -->
  <circle cx="15" cy="32" r="2" fill="#9400D3" opacity="0.6" />
  <circle cx="49" cy="32" r="2" fill="#9400D3" opacity="0.6" />
  
  <!-- Hood/head shroud -->
  <path d="M22 20 Q32 14 42 20 Q40 16 32 12 Q24 16 22 20 Z" fill="#0a0014" />
  <path d="M24 20 Q32 16 40 20 Q38 18 32 15 Q26 18 24 20 Z" fill="#1a0033" />
  
  <!-- Glowing eyes in hood -->
  <circle cx="28" cy="22" r="2" fill="#FF00FF" opacity="0.9" />
  <circle cx="36" cy="22" r="2" fill="#FF00FF" opacity="0.9" />
  <circle cx="28" cy="22" r="1" fill="#FFFFFF" />
  <circle cx="36" cy="22" r="1" fill="#FFFFFF" />
  
  <!-- Lower void trail/legs -->
  <path d="M28 48 Q26 54 24 60 L28 58 L30 50 Z" fill="#1a0033" opacity="0.6" />
  <path d="M36 48 Q38 54 40 60 L36 58 L34 50 Z" fill="#1a0033" opacity="0.6" />
  
  <!-- Energy particles floating around -->
  <circle cx="20" cy="24" r="1" fill="#9400D3" opacity="0.7" />
  <circle cx="44" cy="26" r="1" fill="#9400D3" opacity="0.7" />
  <circle cx="26" cy="44" r="1.5" fill="#FF00FF" opacity="0.6" />
  <circle cx="38" cy="42" r="1.5" fill="#FF00FF" opacity="0.6" />
  <circle cx="32" cy="18" r="1" fill="#FFFFFF" opacity="0.8" />
  
  <!-- Teleportation runes/symbols -->
  <circle cx="32" cy="50" r="3" fill="none" stroke="#9400D3" stroke-width="0.5" opacity="0.6" />
  <circle cx="32" cy="50" r="5" fill="none" stroke="#4B0082" stroke-width="0.5" opacity="0.4" />
  
  <!-- Power indicators (mana storage) -->
  <rect x="18" y="36" width="2" height="6" fill="#FF00FF" opacity="0.7" rx="1" />
  <rect x="44" y="36" width="2" height="6" fill="#FF00FF" opacity="0.7" rx="1" />
</svg>
